<?xml version="1.0" standalone="no"?><!DOCTYPE svg PUBLIC "-//W3C//DTD SVG 1.1//EN" "http://www.w3.org/Graphics/SVG/1.1/DTD/svg11.dtd"><svg t="1711339937819" class="icon" viewBox="0 0 1024 1024" version="1.1" xmlns="http://www.w3.org/2000/svg" p-id="1647" xmlns:xlink="http://www.w3.org/1999/xlink" width="200" height="200"><path d="M494.08 366.592a21.333333 21.333333 0 0 1 35.754667 0l51.2 78.762667a21.333333 21.333333 0 0 0 11.562666 8.746666l88.533334 27.52a21.333333 21.333333 0 0 1 10.88 32.938667l-57.173334 78.421333a21.333333 21.333333 0 0 0-4.096 13.098667l2.56 97.749333a21.333333 21.333333 0 0 1-28.842666 20.565334l-84.992-31.914667a21.333333 21.333333 0 0 0-14.976 0l-85.034667 31.872a21.333333 21.333333 0 0 1-28.8-20.48l2.56-97.792a21.333333 21.333333 0 0 0-4.138667-13.098667L331.946667 514.56a21.333333 21.333333 0 0 1 10.88-32.938667l88.533333-27.52a21.333333 21.333333 0 0 0 11.52-8.746666l51.242667-78.762667z" fill="#FFA26D" p-id="1648"></path><path d="M440.448 116.949333L344.746667 263.978667a85.333333 85.333333 0 0 1-46.250667 34.944L129.749333 351.274667a85.333333 85.333333 0 0 0-43.605333 131.84l110.848 151.637333a85.333333 85.333333 0 0 1 16.426667 52.608l-4.906667 186.922667a85.333333 85.333333 0 0 0 115.2 82.176l158.336-59.306667a85.333333 85.333333 0 0 1 59.818667 0l158.293333 59.306667a85.333333 85.333333 0 0 0 115.242667-82.176l-4.864-186.922667a85.333333 85.333333 0 0 1 16.384-52.565333l110.848-151.637334a85.333333 85.333333 0 0 0-43.605334-131.84l-168.746666-52.394666a85.333333 85.333333 0 0 1-46.208-34.944l-95.744-147.029334a85.333333 85.333333 0 0 0-143.018667 0z m11.690667 700.330667l-158.293334 59.264L298.666667 689.578667a170.666667 170.666667 0 0 0-32.853334-105.173334l-110.805333-151.637333 168.746667-52.352a170.666667 170.666667 0 0 0 92.458666-69.888l95.701334-146.986667 95.744 146.986667a170.666667 170.666667 0 0 0 92.458666 69.888l168.746667 52.352-110.848 151.637333a170.666667 170.666667 0 0 0-32.853333 105.173334l4.906666 186.965333-158.293333-59.306667a170.666667 170.666667 0 0 0-119.68 0z" fill="#000000" p-id="1649"></path></svg>